PathFileType	4	(X/Y/Z)	OpenSim_Sub03_EMGBaseline_Gyro.trc
DataRate	CameraRate	NumFrames	NumMarkers	Units	OrigDataRate	OrigDataStartFrame	OrigNumFrames
100	100	16	8	m	100	3687	7372
Frame#	Time	torso_imu_offset_imu	pelvis_imu_offset_imu	tibia_r_imu_offset_imu	femur_r_imu_offset_imu	tibia_l_imu_offset_imu	femur_l_imu_offset_imu	toes_r_imu_offset_imu	toes_l_imu_offset_imu
				X1	Y1	Z1	X2	Y2	Z2	X3	Y3	Z3	X4	Y4	Z4	X5	Y5	Z5	X6	Y6	Z6	X7	Y7	Z7	X8		Y8	Z8	

3687	36.86000000	0.18735959	-0.08643891	0.05215592	-0.41248751	-0.07293995	-0.37357431	-0.65511482	-0.20298450	-0.50201450	-1.09396766	-0.14851205	-0.83508669	1.58624485	-0.23488829	-0.07101746	-0.11942727	-0.08890813	-1.45021769	-0.20560492	-0.24535256	-0.01832745	0.46921806	1.40404448	1.09889474
3688	36.87000000	0.16360718	-0.05696124	0.03233269	-0.44573556	-0.05085061	-0.45801637	-0.72934543	-0.19096996	-0.52098523	-1.16606984	-0.13498965	-0.74782927	1.14939435	-0.20871558	-0.45232201	-0.36428573	-0.11883635	-1.38177323	-0.18231289	-0.26353760	-0.04319042	0.36944218	1.45345070	0.49428122
3689	36.88000000	0.14075199	-0.03721910	-0.00608752	-0.48145774	-0.02604449	-0.49583823	-0.71657347	-0.18370673	-0.54713180	-1.11921481	-0.12017052	-0.66583330	0.62265215	-0.14993114	-0.73296547	-0.63280095	-0.12767387	-1.32144387	-0.18948213	-0.26787518	-0.06565099	0.25589833	1.60102343	-0.14588667
3690	36.89000000	0.10988886	-0.02454267	-0.04509632	-0.51890514	-0.01086849	-0.49904360	-0.68557298	-0.20519722	-0.58179373	-1.03125216	-0.09967330	-0.56979099	0.00633987	-0.07211028	-0.96195870	-0.86648562	-0.12301740	-1.25550456	-0.16942226	-0.28586174	-0.11032553	0.10704949	1.79393224	-0.74662621
3691	36.90000000	0.08007075	-0.02108811	-0.07208214	-0.53565934	-0.00096271	-0.48332478	-0.69023043	-0.23545008	-0.60949487	-0.97873779	-0.06924727	-0.47740955	-0.49104042	-0.11520107	-1.16984132	-1.05147841	-0.14782807	-1.20931492	-0.14353804	-0.30477337	-0.16022831	-0.11111683	2.05014069	-1.27676660
3692	36.91000000	0.05510775	-0.02890624	-0.09132701	-0.53505444	0.00578760	-0.45890407	-0.67764771	-0.23736881	-0.62508229	-0.99549136	-0.04467041	-0.42544978	-0.84848468	-0.25937286	-1.40211508	-1.19484882	-0.18603881	-1.17521300	-0.12877146	-0.32193512	-0.19756293	-0.22002104	2.30131189	-1.71250544
3693	36.92000000	0.02783806	-0.04569570	-0.10567814	-0.52268026	0.01553613	-0.43025592	-0.65643539	-0.21711994	-0.62373649	-1.02952645	-0.02772515	-0.41468602	-1.15267429	-0.30980527	-1.68532253	-1.32299201	-0.19108746	-1.14848468	-0.08330292	-0.35156205	-0.21961836	-0.23229348	2.46715014	-2.04250765
3694	36.93000000	0.00031219	-0.06005857	-0.12581825	-0.49731740	0.03312939	-0.40580546	-0.61853839	-0.18749801	-0.63127283	-0.97271164	-0.01682309	-0.41828011	-1.39236125	-0.22539081	-1.98833041	-1.43680189	-0.18271641	-1.14045836	-0.05268341	-0.37854279	-0.22284510	-0.16466268	2.67082457	-2.26829544
3695	36.94000000	-0.02877827	-0.07413375	-0.13648054	-0.46038535	0.04551818	-0.37251773	-0.58366484	-0.15870920	-0.63998658	-0.81939926	-0.02528475	-0.43162677	-1.53950454	-0.13401348	-2.29224008	-1.47610487	-0.17074209	-1.12614482	-0.07694345	-0.39938803	-0.21172073	0.00105474	2.85389648	-2.36442293
3696	36.95000000	-0.03695302	-0.09614357	-0.14699234	-0.40859107	0.05529326	-0.33784941	-0.59621202	-0.14383925	-0.63457082	-0.63919507	-0.03715053	-0.46019378	-1.59683776	-0.14125752	-2.58133115	-1.44244321	-0.15898052	-1.09705086	-0.10766247	-0.42362208	-0.21657635	0.11623543	3.03884691	-2.33626393
3697	36.96000000	-0.04915941	-0.09952621	-0.14428219	-0.36358711	0.06503772	-0.31362425	-0.59801626	-0.15047982	-0.61898602	-0.49069185	-0.05646013	-0.50694104	-1.54133542	-0.18921382	-2.82552097	-1.34838724	-0.15260927	-1.05641834	-0.10483009	-0.45037068	-0.22010547	0.13308023	3.25713644	-2.19187379
3698	36.97000000	-0.07321374	-0.10120085	-0.13619479	-0.31724553	0.07311529	-0.27403934	-0.57650584	-0.13811772	-0.61445306	-0.40891776	-0.06540024	-0.55656610	-1.33794975	-0.21461416	-3.04024174	-1.23070209	-0.14844258	-1.01778791	-0.11860124	-0.46327043	-0.20877620	0.13981633	3.47242803	-1.97206422
3699	36.98000000	-0.07898787	-0.12333792	-0.13654852	-0.26854880	0.08800348	-0.24455769	-0.55293462	-0.11986564	-0.63212478	-0.38184137	-0.05808351	-0.59346901	-1.01282205	-0.16238275	-3.23050399	-1.12300111	-0.14255594	-0.97713556	-0.16741617	-0.45483851	-0.18596165	0.23902036	3.66802437	-1.73380499
3700	36.99000000	-0.08809062	-0.13726045	-0.11065593	-0.22694765	0.09847129	-0.21880702	-0.49520222	-0.09683113	-0.63909321	-0.37274929	-0.04576274	-0.61639376	-0.55360532	-0.09861148	-3.37169825	-0.99790492	-0.16075392	-0.91796647	-0.17627738	-0.46341826	-0.17862100	0.40963696	3.84618040	-1.49417864
3701	37	-0.08891041	-0.14435216	-0.08171324	-0.19958538	0.11031277	-0.19203782	-0.46215066	-0.09094909	-0.62078915	-0.35866190	-0.04446641	-0.62629638	-0.03511520	-0.08567582	-3.49104553	-0.83877496	-0.19854924	-0.84435912	-0.13682181	-0.47694709	-0.19526326	0.55819310	3.96058020	-1.27378114
3702	37.01000000	-0.08607023	-0.14851633	-0.06635329	-0.17949582	0.11953481	-0.17134106	-0.47830359	-0.08376283	-0.61575363	-0.35556106	-0.03650149	-0.63579579	0.34937967	-0.09859261	-3.61815058	-0.68618662	-0.20286844	-0.74989209	-0.13424149	-0.49107891	-0.22294992	0.61199425	4.05334417	-1.10363922
